HIERARCHY
ROOT Hips
{
 OFFSET 0.000000 0.000000 0.000000
 CHANNELS 6 Xposition Yposition Zposition Yrotation Xrotation Zrotation
 JOINT Chest
 {
  OFFSET 0.000000 9.588913 -0.003946
  CHANNELS 3 Yrotation Xrotation Zrotation
  JOINT Chest2
  {
   OFFSET 0.000000 9.541882 0.008053
   CHANNELS 3 Yrotation Xrotation Zrotation
   JOINT Chest3
   {
    OFFSET 0.000000 9.501360 0.000000
    CHANNELS 3 Yrotation Xrotation Zrotation
    JOINT Chest4
    {
     OFFSET 0.000000 9.491660 0.000000
     CHANNELS 3 Yrotation Xrotation Zrotation
     JOINT Neck
     {
      OFFSET 0.000000 14.331917 0.000000
      CHANNELS 3 Yrotation Xrotation Zrotation
      JOINT Head
      {
       OFFSET 0.000000 8.884799 0.017034
       CHANNELS 3 Yrotation Xrotation Zrotation
       End Site
       {
        OFFSET 0.000000 16.896195 0.008993
       }
      }
     }
     JOINT RightCollar
     {
      OFFSET -2.923010 9.499495 0.000000
      CHANNELS 3 Yrotation Xrotation Zrotation
      JOINT RightShoulder
      {
       OFFSET -13.795216 0.000000 0.000000
       CHANNELS 3 Yrotation Xrotation Zrotation
       JOINT RightElbow
       {
        OFFSET -30.272209 0.000000 0.000000
        CHANNELS 3 Yrotation Xrotation Zrotation
        JOINT RightWrist
        {
         OFFSET -24.478199 0.000000 0.000000
         CHANNELS 3 Yrotation Xrotation Zrotation
         End Site
         {
          OFFSET -18.090752 0.000000 0.000000
         }
        }
       }
      }
     }
     JOINT LeftCollar
     {
      OFFSET 2.923010 9.499495 0.000000
      CHANNELS 3 Yrotation Xrotation Zrotation
      JOINT LeftShoulder
      {
       OFFSET 13.795216 0.000000 0.000000
       CHANNELS 3 Yrotation Xrotation Zrotation
       JOINT LeftElbow
       {
        OFFSET 30.272209 0.000000 0.000000
        CHANNELS 3 Yrotation Xrotation Zrotation
        JOINT LeftWrist
        {
         OFFSET 24.478199 0.000000 0.000000
         CHANNELS 3 Yrotation Xrotation Zrotation
         End Site
         {
          OFFSET 18.090752 0.000000 0.000000
         }
        }
       }
      }
     }
    }
   }
  }
 }
 JOINT RightHip
 {
  OFFSET -7.826875 0.019532 0.001973
  CHANNELS 3 Yrotation Xrotation Zrotation
  JOINT RightKnee
  {
   OFFSET 0.000000 -40.546152 -0.001885
   CHANNELS 3 Yrotation Xrotation Zrotation
   JOINT RightAnkle
   {
    OFFSET 0.000000 -39.417092 -0.003189
    CHANNELS 3 Yrotation Xrotation Zrotation
    JOINT RightToe
    {
     OFFSET 0.000000 -7.579396 17.243563
     CHANNELS 3 Yrotation Xrotation Zrotation
     End Site
     {
      OFFSET 0.000000 -1.500329 6.694466
     }
    }
   }
  }
 }
 JOINT LeftHip
 {
  OFFSET 7.826875 0.019532 0.001973
  CHANNELS 3 Yrotation Xrotation Zrotation
  JOINT LeftKnee
  {
   OFFSET 0.000000 -40.546152 -0.001885
   CHANNELS 3 Yrotation Xrotation Zrotation
   JOINT LeftAnkle
   {
    OFFSET 0.000000 -39.417092 -0.003189
    CHANNELS 3 Yrotation Xrotation Zrotation
    JOINT LeftToe
    {
     OFFSET 0.000000 -7.579396 17.243563
     CHANNELS 3 Yrotation Xrotation Zrotation
     End Site
     {
      OFFSET 0.000000 -1.500329 6.694466
     }
    }
   }
  }
 }
}
MOTION
Frames: 12
Frame Time: 0.008333
0.000000 87.345680 0.000000 0.000000 -5.767889 0.000000 0.000000 11.653876 0.000000 0.000000 -5.885988 0.000000 0.000000 -0.000000 0.000000 0.000000 -0.000000 0.000000 0.000000 12.528808 0.000000 0.000000 0.711711 0.000000 0.000000 -0.000000 0.000000 0.000000 -0.000000 0.000000 2.309063 -0.000000 0.000000 -2.309063 -0.000000 -0.000000 0.000000 -0.000000 0.000000 0.000000 0.000000 0.000000 -2.309063 0.000000 0.000000 2.309063 -0.000000 0.000000 0.000000 8.520374 0.000000 0.000000 1.905768 0.000000 -0.000000 -4.658254 0.000000 0.000000 -0.000000 0.000000 0.000000 8.520374 0.000000 0.000000 1.905768 0.000000 -0.000000 -4.658254 0.000000 0.000000 -0.000000 0.000000
-14.400110 47.109002 -13.535932 8.524929 -24.446255 0.381711 9.396360 9.879670 1.723923 5.322216 5.677286 1.054708 6.677305 7.079282 1.402636 5.322216 5.677286 1.054708 3.538301 6.233051 -3.743837 4.949487 -19.219867 -5.130618 12.400359 -4.936664 -6.544149 29.393552 -42.533995 62.992226 48.838017 16.329409 26.325059 -0.075297 1.248556 -10.777046 -0.382015 -5.586872 2.045093 -8.841129 -35.574933 -71.234660 -58.261847 -4.789021 -41.754391 8.742866 0.628023 11.791686 32.339895 -66.028018 -13.784774 145.712568 67.893583 157.772041 -1.828659 -19.087219 0.626236 0.083187 -0.661513 0.040038 50.186560 -66.407356 -18.632948 104.502791 68.997463 132.944229 4.666726 -10.510377 -12.781125 0.216248 0.666895 0.108462
-14.398655 47.110187 -13.536694 8.518229 -24.446860 0.385980 9.400191 9.880317 1.718962 5.323260 5.677060 1.053242 6.678588 7.079018 1.400815 5.323260 5.677060 1.053242 3.533424 6.250243 -3.730579 4.939172 -19.200578 -5.112877 12.415015 -4.899332 -6.553655 29.419554 -42.554390 62.910636 48.830670 16.189096 26.382139 -0.111310 1.268037 -10.799793 -0.364189 -5.603470 2.044857 -8.857858 -35.574138 -71.242994 -58.295173 -4.725258 -41.742792 8.726424 0.639186 11.789780 32.334528 -66.026428 -13.779282 145.707887 67.894123 157.762985 -1.829336 -19.085702 0.623835 0.083497 -0.662092 0.040307 50.194027 -66.401704 -18.629786 104.512782 68.998206 132.948349 4.672805 -10.525512 -12.781153 0.210340 0.675698 0.108547
-14.397800 47.111303 -13.538194 8.513945 -24.442986 0.385879 9.403260 9.876645 1.718290 5.324523 5.678163 1.051774 6.680151 7.080413 1.399015 5.324523 5.678163 1.051774 3.528289 6.266507 -3.717481 4.928666 -19.182331 -5.095316 12.429271 -4.861777 -6.566803 29.434761 -42.594743 62.827144 48.813854 16.039011 26.470899 -0.151017 1.288602 -10.829389 -0.351513 -5.621784 2.042446 -8.865177 -35.575329 -71.243989 -58.333569 -4.662860 -41.740991 8.713858 0.642091 11.786663 32.329905 -66.029297 -13.775726 145.692212 67.895750 157.745176 -1.833602 -19.083758 0.622696 0.086504 -0.661495 0.040020 50.208904 -66.399561 -18.633044 104.503310 68.999234 132.933987 4.673982 -10.543825 -12.777079 0.203510 0.688038 0.107206
-14.396840 47.112633 -13.539760 8.510672 -24.439381 0.386228 9.406671 9.875540 1.718149 5.326070 5.679816 1.050323 6.682075 7.082494 1.397249 5.326070 5.679816 1.050323 3.523656 6.281162 -3.704221 4.918797 -19.165885 -5.077815 12.439469 -4.820021 -6.585050 29.434253 -42.662378 62.742613 48.791777 15.886478 26.598932 -0.191741 1.301174 -10.861962 -0.344381 -5.642508 2.038846 -8.879087 -35.572916 -71.236553 -58.365731 -4.613394 -41.735758 8.705373 0.639532 11.782022 32.324424 -66.032086 -13.771222 145.679547 67.897122 157.730471 -1.842037 -19.081494 0.621815 0.094162 -0.661600 0.040886 50.230843 -66.393943 -18.642131 104.485692 69.000046 132.913176 4.674292 -10.567473 -12.770994 0.196809 0.702817 0.105084
-14.395869 47.114436 -13.540600 8.507979 -24.440732 0.386456 9.411093 9.881222 1.717420 5.327661 5.681333 1.049206 6.684058 7.084402 1.395900 5.327661 5.681333 1.049206 3.520102 6.294253 -3.690073 4.910031 -19.151188 -5.059689 12.451020 -4.770315 -6.606558 29.420248 -42.750145 62.649639 48.770672 15.730960 26.758961 -0.229134 1.295172 -10.890455 -0.338612 -5.665755 2.037712 -8.906369 -35.564877 -71.225065 -58.383407 -4.582167 -41.720880 8.699962 0.633743 11.776493 32.311269 -66.031902 -13.756372 145.682062 67.898587 157.731168 -1.854126 -19.078212 0.618916 0.107105 -0.664241 0.045134 50.248268 -66.382106 -18.646342 104.470874 69.001945 132.898700 4.678521 -10.596911 -12.767427 0.193203 0.719093 0.103259
-14.395039 47.116501 -13.540977 8.505640 -24.444897 0.386212 9.414843 9.890311 1.716213 5.328391 5.682740 1.048292 6.684966 7.086170 1.394788 5.328391 5.682740 1.048292 3.518828 6.306484 -3.675736 4.903898 -19.137465 -5.042031 12.473358 -4.717325 -6.628398 29.405719 -42.838015 62.535687 48.747969 15.561743 26.930964 -0.259286 1.267937 -10.905763 -0.328871 -5.691779 2.038876 -8.937021 -35.552354 -71.217340 -58.386159 -4.564233 -41.703358 8.696708 0.624824 11.770728 32.297128 -66.029961 -13.738041 145.695492 67.900475 157.743107 -1.865872 -19.074577 0.616514 0.118800 -0.668403 0.050342 50.257075 -66.367250 -18.642106 104.462226 69.007026 132.892840 4.683486 -10.629587 -12.768693 0.195085 0.735115 0.103169
-14.394361 47.118519 -13.541452 8.504013 -24.448046 0.385714 9.415992 9.897331 1.715151 5.327384 5.684264 1.047467 6.683702 7.088090 1.393764 5.327384 5.684264 1.047467 3.520881 6.318824 -3.662676 4.901949 -19.123645 -5.026757 12.505030 -4.664657 -6.650701 29.412900 -42.911878 62.389984 48.716371 15.361506 27.095764 -0.279051 1.226018 -10.901699 -0.313015 -5.717640 2.039325 -8.962425 -35.538905 -71.215475 -58.376476 -4.554982 -41.689282 8.695920 0.616715 11.765153 32.287726 -66.029221 -13.723779 145.711629 67.902600 157.756911 -1.875486 -19.070000 0.617818 0.125834 -0.673473 0.053660 50.259755 -66.355236 -18.633741 104.463893 69.014484 132.894852 4.689599 -10.658950 -12.770756 0.198537 0.746701 0.103528
-14.393734 47.120412 -13.542162 8.502347 -24.449329 0.385753 9.415273 9.902051 1.713755 5.325438 5.686051 1.047163 6.681271 7.090335 1.393382 5.325438 5.686051 1.047163 3.523926 6.330568 -3.651508 4.901700 -19.110505 -5.013981 12.536816 -4.610156 -6.676392 29.458079 -42.971440 62.211914 48.673826 15.126821 27.240681 -0.290305 1.172594 -10.878834 -0.292229 -5.742344 2.036708 -8.983095 -35.527244 -71.219268 -58.355841 -4.549386 -41.681718 8.693931 0.611664 11.766174 32.284703 -66.029478 -13.717518 145.714928 67.903396 157.758240 -1.882698 -19.064636 0.620417 0.128576 -0.678436 0.055027 50.262490 -66.346839 -18.628059 104.470503 69.020771 132.899038 4.697865 -10.681998 -12.770306 0.198852 0.752639 0.102242
-14.393196 47.122234 -13.542981 8.498180 -24.449468 0.386684 9.414342 9.906359 1.712877 5.323486 5.687997 1.047326 6.678843 7.092771 1.393585 5.323486 5.687997 1.047326 3.526647 6.340566 -3.641734 4.901564 -19.099322 -5.002836 12.566607 -4.551125 -6.704834 29.541947 -43.020856 62.007416 48.623493 14.873037 27.358380 -0.297274 1.106960 -10.828939 -0.266961 -5.767948 2.030649 -9.002812 -35.516739 -71.229913 -58.327527 -4.540228 -41.677694 8.687120 0.605972 11.774631 32.285303 -66.029337 -13.715878 145.702828 67.903452 157.745418 -1.886351 -19.060701 0.620673 0.127818 -0.680907 0.055606 50.267443 -66.340216 -18.623955 104.475773 69.025429 132.903026 4.703259 -10.701421 -12.770487 0.198038 0.755118 0.100504
-14.392698 47.124133 -13.543585 8.491800 -24.450528 0.388070 9.413200 9.910222 1.713118 5.322087 5.690334 1.047780 6.677113 7.095689 1.394168 5.322087 5.690334 1.047780 3.528603 6.348249 -3.632563 4.900850 -19.090719 -4.992322 12.598613 -4.490558 -6.731984 29.651101 -43.059165 61.783012 48.569477 14.614817 27.448260 -0.301164 1.030491 -10.737399 -0.237825 -5.792961 2.022436 -9.022471 -35.506678 -71.245663 -58.298321 -4.523315 -41.673204 8.674990 0.595567 11.782620 32.284682 -66.028067 -13.711607 145.694841 67.904585 157.736260 -1.886007 -19.058017 0.619574 0.126537 -0.682082 0.056231 50.269551 -66.333853 -18.614957 104.481970 69.030549 132.909217 4.705086 -10.718578 -12.772812 0.197502 0.755178 0.099538
-14.392046 47.126211 -13.543751 8.485710 -24.454005 0.389492 9.412629 9.914383 1.713752 5.322074 5.693212 1.048439 6.677124 7.099276 1.395036 5.322074 5.693212 1.048439 3.527038 6.352345 -3.622983 4.896183 -19.086097 -4.980594 12.628986 -4.434045 -6.753620 29.774679 -43.083474 61.544647 48.519831 14.357095 27.516530 -0.309077 0.946292 -10.604372 -0.210545 -5.816587 2.013855 -9.040594 -35.496891 -71.263776 -58.271769 -4.499712 -41.670258 8.657813 0.582511 11.788415 32.279697 -66.024925 -13.702527 145.691815 67.905347 157.731762 -1.886078 -19.055665 0.617763 0.127531 -0.684068 0.057372 50.266511 -66.326367 -18.599511 104.490586 69.036927 132.917108 4.705631 -10.734590 -12.775009 0.197262 0.753927 0.099118
